<?xml version="1.0" encoding="UTF-8" standalone="no"?>
<!-- Created with Inkscape (http://www.inkscape.org/) -->

<svg
   xmlns:dc="http://purl.org/dc/elements/1.1/"
   xmlns:cc="http://creativecommons.org/ns#"
   xmlns:rdf="http://www.w3.org/1999/02/22-rdf-syntax-ns#"
   xmlns:svg="http://www.w3.org/2000/svg"
   xmlns="http://www.w3.org/2000/svg"
   xmlns:sodipodi="http://sodipodi.sourceforge.net/DTD/sodipodi-0.dtd"
   xmlns:inkscape="http://www.inkscape.org/namespaces/inkscape"
   version="1.1"
   id="svg4539"
   width="256"
   height="256"
   viewBox="0 0 256 256"
   sodipodi:docname="webcam.png"
   inkscape:version="0.92.1 r">
  <metadata
     id="metadata4545">
    <rdf:RDF>
      <cc:Work
         rdf:about="">
        <dc:format>image/svg+xml</dc:format>
        <dc:type
           rdf:resource="http://purl.org/dc/dcmitype/StillImage" />
        <dc:title></dc:title>
      </cc:Work>
    </rdf:RDF>
  </metadata>
  <defs
     id="defs4543" />
  <sodipodi:namedview
     pagecolor="#ffffff"
     bordercolor="#666666"
     borderopacity="1"
     objecttolerance="10"
     gridtolerance="10"
     guidetolerance="10"
     inkscape:pageopacity="0"
     inkscape:pageshadow="2"
     inkscape:window-width="1920"
     inkscape:window-height="1021"
     id="namedview4541"
     showgrid="false"
     inkscape:zoom="3.1914062"
     inkscape:cx="153.06732"
     inkscape:cy="128"
     inkscape:window-x="0"
     inkscape:window-y="0"
     inkscape:window-maximized="1"
     inkscape:current-layer="g4549" />
  <g
     id="g4549"
     transform="translate(-6.2668292,-7.8335376)">
    <path
       style="fill:#dbbccd"
       d="M 99.928294,234.01261 44.356588,233.5 70.928294,218.4496 97.5,203.3992 l 0.283424,-9.46849 0.283425,-9.46848 -6.783425,-3.33452 C 40.087296,155.96127 27.772297,88.774195 66.831187,47.723383 91.585477,21.706675 130.67358,14.115629 162.84352,29.077451 193.62687,43.394385 212,71.958712 212,105.5 c 0,33.65002 -18.28259,61.984 -49.40648,76.56915 L 154,186.0962 v 8.32637 8.32637 l 26.99194,15.37553 c 14.84557,8.45654 26.99557,15.71303 27,16.12553 0.004,0.4125 -11.80444,0.64317 -26.24194,0.51261 -14.4375,-0.13056 -51.25727,-0.46806 -81.821706,-0.75 z"
       id="path4563"
       inkscape:connector-curvature="0" />
    <path
       style="fill:#73a0d6"
       d="m 47.5,232.17886 c 1.65,-0.99752 13.9125,-7.99609 27.25,-15.55237 L 99,202.88779 v -9.33531 -9.33532 l -4.25,-1.68248 C 82.909908,177.84746 66.695183,164.71573 59.112715,153.6733 41.776042,128.42574 39.398798,96.082591 52.862307,68.634566 63.148135,47.664872 79.080911,33.789512 102.02087,25.823896 111.25382,22.617871 111.92852,22.532388 128,22.532388 c 16.07148,0 16.74618,0.08548 25.97913,3.291508 22.93996,7.965616 38.87274,21.840976 49.15856,42.81067 8.50944,17.348171 10.8162,35.270564 6.95048,54.001904 -1.99756,9.67915 -7.63616,22.93931 -13.18219,31.00018 -8.07543,11.73723 -23.05837,23.68441 -36.71438,29.2755 l -6.6916,2.7397 -0.28569,8.4519 -0.28569,8.4519 25.78569,14.73118 c 14.18213,8.10214 26.46069,15.17023 27.28569,15.70686 0.98175,0.63859 -26.65817,0.97968 -80,0.98726 -79.142362,0.0112 -81.413216,-0.0409 -78.5,-1.80209 z M 156.10212,95.730067 c 10.05092,-6.714454 8.88584,-22.124426 -2.09632,-27.72711 -6.47627,-3.303942 -12.92223,-2.340334 -18.23268,2.725607 -7.70794,7.353031 -5.13307,21.591708 4.6773,25.86484 4.87891,2.125119 11.74519,1.746379 15.6517,-0.863337 z"
       id="path4561"
       inkscape:connector-curvature="0" />
    <path
       style="fill:#a95b86"
       d="M 146.3843,218.51002 137.5,203.02004 118.25,203.01002 99,203 v -9.39514 -9.39514 l 6.25,2.0043 c 8.95518,2.87182 27.79775,3.56532 38.4155,1.41389 C 148.08424,186.73256 151.99216,186 152.34978,186 152.7074,186 153,189.79398 153,194.43107 v 8.43107 l 27.25,15.5657 27.25,15.56569 -26.1157,0.003 -26.1157,0.003 -8.8843,-15.48998 z M 114,162.40038 C 99.985318,158.65975 88.184489,150.46037 79.959728,138.74874 66.074649,118.9771 66.057527,92.047279 79.917488,72.311408 86.097754,63.511029 92.512272,57.914849 101.5,53.482306 110.66883,48.960448 118.68324,47 128,47 c 9.31676,0 17.33117,1.960448 26.5,6.482306 31.42318,15.497197 41.77104,56.458864 21.54027,85.266434 -11.31199,16.1077 -29.09912,25.34426 -48.50037,25.18545 -4.42194,-0.0362 -10.5149,-0.72641 -13.5399,-1.53381 z m 42.10212,-66.670313 c 7.03521,-4.699825 9.08743,-15.04359 4.36384,-21.994975 -6.74212,-9.92192 -19.63249,-10.0896 -26.90417,-0.349973 -2.90657,3.893032 -2.89007,13.350353 0.0302,17.291551 5.53756,7.473592 15.52957,9.71674 22.51017,5.053397 z"
       id="path4559"
       inkscape:connector-curvature="0" />
    <path
       style="fill:#57779f"
       d="M 146.3843,218.51002 137.5,203.02004 118.25,203.01002 99,203 v -9.39514 -9.39514 l 6.25,2.0043 c 8.95518,2.87182 27.79775,3.56532 38.4155,1.41389 C 148.08424,186.73256 151.99216,186 152.34978,186 152.7074,186 153,189.79398 153,194.43107 v 8.43107 l 27.25,15.5657 27.25,15.56569 -26.1157,0.003 -26.1157,0.003 -8.8843,-15.48998 z M 114,162.40038 C 99.985318,158.65975 88.184489,150.46037 79.959728,138.74874 66.074649,118.9771 66.057527,92.047279 79.917488,72.311408 86.097754,63.511029 92.512272,57.914849 101.5,53.482306 110.66883,48.960448 118.68324,47 128,47 c 9.31676,0 17.33117,1.960448 26.5,6.482306 31.42318,15.497197 41.77104,56.458864 21.54027,85.266434 -11.31199,16.1077 -29.09912,25.34426 -48.50037,25.18545 -4.42194,-0.0362 -10.5149,-0.72641 -13.5399,-1.53381 z m 45.8648,-25.36042 C 171.87873,125.02603 176.09262,105.79237 170.14196,90.131488 167.89867,84.22764 161.17184,73.44015 157.73998,70.243044 156.50799,69.095332 151.9,66.700756 147.5,64.921766 136.43084,60.446328 124.12938,59.742971 113.98324,63.005388 110.14246,64.240365 107,65.647915 107,66.133277 c 0,0.485362 2.32424,4.970334 5.16497,9.966606 4.73351,8.325283 5.38091,9.041662 7.75,8.57575 10.81721,-2.127344 9.87664,-2.321231 11.95893,2.465189 2.55348,5.869526 6.92261,9.79707 11.72,10.535479 5.51036,0.848147 6.4061,1.893808 6.4061,7.478259 0,6.1683 -2.12868,11.3509 -6.50877,15.84658 l -3.41111,3.50114 5.62649,9.69491 c 6.42754,11.0752 6.00967,10.99129 14.15819,2.84277 z"
       id="path4557"
       inkscape:connector-curvature="0" />
    <path
       style="fill:#8f5374"
       d="m 99,193.93261 c 0,-8.9496 0.02923,-9.05804 2.25,-8.34833 13.80101,4.41053 28.38123,5.46311 40.69169,2.93764 4.64293,-0.9525 9.03043,-1.95773 9.75,-2.23385 1.0153,-0.38961 1.30831,1.42561 1.30831,8.10494 V 203 H 126 99 Z m 21.5,-30.56916 C 91.010232,158.85241 70,134.77866 70,105.5 70,72.913832 95.350017,47.613363 128,47.613363 c 32.64998,0 58,25.300469 58,57.886637 0,26.15983 -16.66906,48.39316 -41.89282,55.87699 -5.67292,1.68314 -18.52198,2.76435 -23.60718,1.98646 z m 39.3648,-26.32349 C 171.87873,125.02603 176.09262,105.79237 170.14196,90.131488 167.89867,84.22764 161.17184,73.44015 157.73998,70.243044 156.50799,69.095332 151.9,66.700756 147.5,64.921766 136.43084,60.446328 124.12938,59.742971 113.98324,63.005388 110.14246,64.240365 107,65.647915 107,66.133277 c 0,0.485362 2.32424,4.970334 5.16497,9.966606 4.73351,8.325283 5.38091,9.041662 7.75,8.57575 10.78848,-2.121694 9.7137,-2.409574 12.1503,3.254456 2.50684,5.827309 6.21646,8.931573 11.67523,9.770001 5.35451,0.822415 6.2595,1.900175 6.2595,7.45447 0,6.1683 -2.12868,11.3509 -6.50877,15.84658 l -3.41111,3.50114 5.62649,9.69491 c 6.42754,11.0752 6.00967,10.99129 14.15819,2.84277 z"
       id="path4555"
       inkscape:connector-curvature="0" />
    <path
       style="fill:#5b475b"
       d="m 99,193.93261 c 0,-8.9496 0.02923,-9.05804 2.25,-8.34833 13.80101,4.41053 28.38123,5.46311 40.69169,2.93764 4.64293,-0.9525 9.03043,-1.95773 9.75,-2.23385 1.0153,-0.38961 1.30831,1.42561 1.30831,8.10494 V 203 H 126 99 Z m 21.5,-30.56916 C 91.010232,158.85241 70,134.77866 70,105.5 70,72.913832 95.350017,47.613363 128,47.613363 c 32.64998,0 58,25.300469 58,57.886637 0,26.15983 -16.66906,48.39316 -41.89282,55.87699 -5.67292,1.68314 -18.52198,2.76435 -23.60718,1.98646 z m 37.286,-23.86095 c 17.18687,-15.45248 20.19826,-40.073492 7.31914,-59.841119 -5.81549,-8.925968 -8.59682,-11.215985 -18.67451,-15.375715 -8.18737,-3.379474 -9.72128,-3.68329 -18.43063,-3.650504 -7.38333,0.02779 -10.77691,0.532462 -15.23099,2.265038 -3.15205,1.226102 -5.92758,2.547347 -6.16784,2.936101 -0.24026,0.388754 2.00393,4.972122 4.98709,10.185262 3.98915,6.97113 5.88524,9.396213 7.16783,9.167605 0.95915,-0.170958 4.04492,-0.559082 6.85727,-0.862499 4.94889,-0.533923 5.13597,-0.46156 5.81649,2.249837 1.593,6.347044 6.46521,10.562777 13.79733,11.93829 2.99534,0.561929 3.77431,1.215492 4.29967,3.607454 0.35288,1.60666 0.34507,4.67635 -0.0173,6.82153 -0.7335,4.34157 -5.6795,12.80049 -8.0067,13.69352 -0.82654,0.31717 -1.5028,1.05148 -1.5028,1.6318 0,0.9915 8.22775,15.76189 10.29467,18.4809 1.44005,1.89437 2.08172,1.6162 7.49133,-3.2475 z"
       id="path4553"
       inkscape:connector-curvature="0" />
    <path
       style="fill:#39393b"
       d="m 137,196 c 0,-6.96682 0.013,-7.00006 2.75,-7.01187 1.5125,-0.007 5.1125,-0.6408 8,-1.40949 L 153,186.18102 V 194.59051 203 h -8 -8 z M 112.60806,161.47798 C 92.737713,156.02217 75.669729,138.09157 71.466656,118.25727 67.178314,98.020588 72.843834,79.02624 87.532342,64.395097 99.066586,52.9059 111.13459,48.023738 128,48.023738 c 16.86541,0 28.93341,4.882162 40.46766,16.371359 11.46362,11.418853 17.49761,25.593734 17.49761,41.104903 0,25.80873 -18.10964,49.39795 -43.01061,56.02466 -6.77914,1.80408 -23.70084,1.77805 -30.3466,-0.0467 z m 31.38945,-13.44465 c 15.37072,-5.70884 26.30157,-19.02045 29.06319,-35.39323 2.1747,-12.89308 -1.29757,-24.924239 -10.97338,-38.021893 -4.50779,-6.101973 -10.37806,-9.54829 -22.28915,-13.085502 -20.30926,-6.031204 -43.769396,5.139046 -53.060875,25.264275 -2.605189,5.642807 -3.163297,8.230422 -3.528545,16.35977 -0.359444,8.00016 -0.06556,10.76354 1.713151,16.10856 5.092651,15.30342 16.215419,25.71006 32.342649,30.26029 6.8351,1.92849 19.41319,1.22636 26.73296,-1.49227 z m -23.96763,-22.14592 c -4.34571,-1.73436 -8.99088,-5.89064 -11.01262,-9.85358 -7.30778,-14.32443 0.88747,-29.813989 16.76922,-31.694948 4.82544,-0.571501 4.92573,-0.527828 5.51127,2.399889 C 132.5259,92.87951 140.09844,99 146.46788,99 148.89294,99 149,99.250932 149,104.9349 c 0,3.2642 -0.42992,7.06567 -0.95537,8.44772 -1.43482,3.77387 -8.11638,10.74384 -11.76251,12.27025 -3.70443,1.55082 -12.6313,1.67964 -16.25224,0.23454 z"
       id="path4551"
       inkscape:connector-curvature="0" />
  </g>
</svg>
